<?xml version="1.0" encoding="utf-8"?>
<!-- Generator: Adobe Illustrator 14.0.0, SVG Export Plug-In . SVG Version: 6.00 Build 43363)  -->
<!DOCTYPE svg PUBLIC "-//W3C//DTD SVG 1.1//EN" "http://www.w3.org/Graphics/SVG/1.1/DTD/svg11.dtd">
<svg version="1.1" id="Layer_1" xmlns="http://www.w3.org/2000/svg" xmlns:xlink="http://www.w3.org/1999/xlink" x="0px" y="0px"
	 width="1024px" height="1024px" viewBox="0 0 1024 1024" enable-background="new 0 0 1024 1024" xml:space="preserve">
<g>
	<path fill="none" stroke="#947146" stroke-width="7" d="M91.346,273.853c0-30.186,24.536-54.611,54.856-54.611"/>
	<path fill="none" stroke="#947146" stroke-width="7" d="M183.286,219.119c30.185,0,54.61,24.536,54.61,54.856"/>
	<path fill="none" stroke="#947146" stroke-width="7" d="M237.764,311.029c0,30.186-24.535,54.611-54.856,54.611"/>
	<path fill="none" stroke="#947146" stroke-width="7" d="M145.824,365.764c-30.185,0-54.61-24.537-54.61-54.857"/>
	<path fill="none" stroke="#AF9574" stroke-width="3" d="M146.396,287.97c0-7.46,6.064-13.497,13.557-13.497"/>
	<path fill="none" stroke="#AF9574" stroke-width="3" d="M169.118,274.443c7.46,0,13.497,6.064,13.497,13.557"/>
	<path fill="none" stroke="#AF9574" stroke-width="3" d="M182.582,297.157c0,7.46-6.064,13.496-13.557,13.496"/>
	<path fill="none" stroke="#AF9574" stroke-width="3" d="M159.859,310.685c-7.46,0-13.497-6.063-13.497-13.557"/>
	<line fill="none" stroke="#CAB8A2" x1="150.154" y1="228.02" x2="178.822" y2="228.02"/>
	<line fill="none" stroke="#CAB8A2" x1="156.488" y1="234.353" x2="172.488" y2="234.353"/>
	<line fill="none" stroke="#CAB8A2" x1="161.821" y1="240.686" x2="167.155" y2="240.686"/>
	<line fill="none" stroke="#CAB8A2" x1="178.822" y1="359.607" x2="150.154" y2="359.607"/>
	<line fill="none" stroke="#CAB8A2" x1="172.488" y1="353.273" x2="156.488" y2="353.273"/>
	<line fill="none" stroke="#CAB8A2" x1="167.155" y1="346.941" x2="161.821" y2="346.941"/>
	<line fill="none" stroke="#CAB8A2" x1="230.282" y1="278.107" x2="230.282" y2="306.775"/>
	<line fill="none" stroke="#CAB8A2" x1="223.949" y1="284.441" x2="223.949" y2="300.441"/>
	<line fill="none" stroke="#CAB8A2" x1="217.616" y1="289.774" x2="217.616" y2="295.108"/>
	<line fill="none" stroke="#CAB8A2" x1="98.694" y1="306.775" x2="98.694" y2="278.107"/>
	<line fill="none" stroke="#CAB8A2" x1="105.028" y1="300.441" x2="105.028" y2="284.441"/>
	<line fill="none" stroke="#CAB8A2" x1="111.36" y1="295.108" x2="111.36" y2="289.774"/>
</g>
<g>
	<g>
		<path fill="#C53AC6" d="M603.55,229.775c34.554,0,62.666,28.112,62.666,62.666c0,34.554-28.112,62.666-62.666,62.666
			s-62.666-28.112-62.666-62.666C540.884,257.887,568.996,229.775,603.55,229.775 M603.55,219.775
			c-40.133,0-72.666,32.534-72.666,72.666c0,40.133,32.533,72.666,72.666,72.666s72.666-32.533,72.666-72.666
			C676.216,252.309,643.683,219.775,603.55,219.775L603.55,219.775z"/>
	</g>
	<g>
		<path fill="#C53AC6" d="M603.55,248.442c4.708,0,8.538,3.83,8.538,8.538s-3.83,8.538-8.538,8.538s-8.538-3.83-8.538-8.538
			S598.842,248.442,603.55,248.442 M603.55,245.442c-6.373,0-11.538,5.166-11.538,11.538c0,6.373,5.165,11.538,11.538,11.538
			s11.538-5.166,11.538-11.538C615.088,250.608,609.923,245.442,603.55,245.442L603.55,245.442z"/>
	</g>
	<g>
		<path fill="#C53AC6" d="M634.437,302.271c5.989,0,10.861,4.872,10.861,10.861s-4.872,10.861-10.861,10.861
			s-10.861-4.872-10.861-10.861S628.447,302.271,634.437,302.271 M634.437,299.271c-7.656,0-13.861,6.207-13.861,13.861
			c0,7.656,6.205,13.861,13.861,13.861s13.861-6.205,13.861-13.861C648.298,305.479,642.093,299.271,634.437,299.271
			L634.437,299.271z"/>
	</g>
	<g>
		<path fill="#C53AC6" d="M573.109,301.717c6.142,0,11.139,4.997,11.139,11.139s-4.997,11.139-11.139,11.139
			s-11.139-4.997-11.139-11.139S566.968,301.717,573.109,301.717 M573.109,298.717c-7.809,0-14.139,6.331-14.139,14.139
			c0,7.809,6.33,14.139,14.139,14.139s14.139-6.33,14.139-14.139C587.248,305.048,580.918,298.717,573.109,298.717L573.109,298.717z
			"/>
	</g>
</g>
<path fill="none" stroke="#FF0000" stroke-width="3" d="M419.402,664.738c-13.323,13.321-34.716,13.487-47.832,0.373"/>
<path fill="none" stroke="#64CC78" stroke-width="3" d="M780.574,444.302c8.216-8.216,21.542-8.187,29.795,0.066"/>
<path fill="none" stroke="#64CC78" stroke-width="3" d="M820.496,454.429c8.215,8.216,8.186,21.541-0.067,29.794"/>
<path fill="none" stroke="#64CC78" stroke-width="3" d="M810.308,494.272c-8.216,8.216-21.542,8.186-29.795-0.066"/>
<path fill="none" stroke="#64CC78" stroke-width="3" d="M770.387,484.146c-8.216-8.216-8.186-21.542,0.066-29.794"/>
<g>
	<path fill="none" stroke="#E6CB22" stroke-width="6" d="M114.281,640.109c0-30.186,24.536-54.611,54.856-54.611"/>
	<path fill="none" stroke="#E6CB22" stroke-width="6" d="M206.221,585.375c30.185,0,54.61,24.537,54.61,54.857"/>
	<path fill="none" stroke="#E6CB22" stroke-width="6" d="M260.699,677.285c0,30.186-24.535,54.611-54.856,54.611"/>
	<path fill="none" stroke="#E6CB22" stroke-width="6" d="M168.759,732.02c-30.185,0-54.61-24.535-54.61-54.855"/>
	<path fill="none" stroke="#E6DB9A" stroke-width="3" d="M163.706,618.959c13.107-13.106,34.368-13.06,47.534,0.106"/>
	<path fill="none" stroke="#E6DB9A" stroke-width="3" d="M227.396,635.115c13.107,13.107,13.059,34.367-0.107,47.533"/>
	<path fill="none" stroke="#E6DB9A" stroke-width="3" d="M211.142,698.681c-13.108,13.107-34.369,13.06-47.534-0.105"/>
	<path fill="none" stroke="#E6DB9A" stroke-width="3" d="M147.452,682.524c-13.106-13.106-13.059-34.366,0.106-47.532"/>
	<line fill="none" stroke="#968516" stroke-width="6" x1="96.407" y1="657.7" x2="118.674" y2="657.7"/>
	<line fill="none" stroke="#968516" stroke-width="6" x1="247.898" y1="657.7" x2="270.165" y2="657.7"/>
	<line fill="none" stroke="#968516" stroke-width="6" x1="187.49" y1="567.354" x2="187.49" y2="589.621"/>
	<line fill="none" stroke="#968516" stroke-width="6" x1="187.49" y1="718.844" x2="187.49" y2="741.111"/>
</g>
<g>
	<path fill="none" stroke="#B25D5D" stroke-width="4" d="M616.709,409.724c17.746,17.746,17.682,46.532-0.144,64.358"/>
	<path fill="none" stroke="#B25D5D" stroke-width="4" d="M508.468,473.914c-17.746-17.746-17.682-46.531,0.144-64.357"/>
	<path fill="none" stroke="#B28686" stroke-width="4" d="M613.85,412.307c16.809,16.809,17.701,43.088,0.818,59.972"/>
	<path fill="none" stroke="#B28686" stroke-width="4" d="M510.477,471.7c-16.808-16.809-15.896-42.667,0.988-59.551"/>
</g>
<g>
	<path fill="none" stroke="#009DBC" stroke-width="4" d="M311.073,273.942c0-30.186,24.536-54.611,54.856-54.611"/>
	<path fill="none" stroke="#009DBC" stroke-width="4" d="M403.014,219.208c30.185,0,54.61,24.536,54.61,54.856"/>
	<path fill="none" stroke="#009DBC" stroke-width="4" d="M457.491,311.118c0,30.186-24.535,54.611-54.856,54.611"/>
	<path fill="none" stroke="#009DBC" stroke-width="4" d="M365.551,365.853c-30.185,0-54.61-24.536-54.61-54.856"/>
	<path fill="none" stroke="#99D8E4" stroke-width="3" d="M339.259,281.238c0-18.536,15.067-33.536,33.687-33.536"/>
	<path fill="none" stroke="#99D8E4" stroke-width="3" d="M395.719,247.627c18.536,0,33.535,15.067,33.535,33.687"/>
	<path fill="none" stroke="#99D8E4" stroke-width="3" d="M429.173,304.067c0,18.536-15.067,33.536-33.687,33.536"/>
	<path fill="none" stroke="#99D8E4" stroke-width="3" d="M372.713,337.679c-18.536,0-33.535-15.066-33.535-33.686"/>
	<circle fill="none" stroke="#99D8E4" cx="384.215" cy="365.585" r="1.289"/>
	<circle fill="none" stroke="#99D8E4" cx="457.359" cy="292.442" r="1.289"/>
	<circle fill="none" stroke="#99D8E4" cx="311.073" cy="292.442" r="1.289"/>
	<circle fill="none" stroke="#99D8E4" cx="384.216" cy="219.299" r="1.289"/>
</g>
<line fill="none" stroke="#00B100" stroke-width="6" x1="823.072" y1="274.156" x2="823.072" y2="219.299"/>
<line fill="none" stroke="#00B100" stroke-width="6" x1="823.072" y1="365.586" x2="823.072" y2="310.729"/>
<line fill="none" stroke="#00B100" stroke-width="6" x1="804.785" y1="292.442" x2="749.928" y2="292.442"/>
<line fill="none" stroke="#00B100" stroke-width="6" x1="896.215" y1="292.442" x2="841.357" y2="292.442"/>
<line fill="none" stroke="#51FF00" stroke-width="4" x1="813.93" y1="228.442" x2="832.215" y2="228.442"/>
<line fill="none" stroke="#51FF00" stroke-width="4" x1="813.93" y1="219.299" x2="832.215" y2="219.299"/>
<line fill="none" stroke="#51FF00" stroke-width="4" x1="813.93" y1="228.442" x2="832.215" y2="228.442"/>
<line fill="none" stroke="#51FF00" stroke-width="4" x1="813.93" y1="237.585" x2="832.215" y2="237.585"/>
<line fill="none" stroke="#51FF00" stroke-width="4" x1="813.93" y1="246.728" x2="832.215" y2="246.728"/>
<line fill="none" stroke="#51FF00" stroke-width="4" x1="813.93" y1="255.871" x2="832.215" y2="255.871"/>
<line fill="none" stroke="#51FF00" stroke-width="4" x1="813.93" y1="265.013" x2="832.215" y2="265.013"/>
<line fill="none" stroke="#51FF00" stroke-width="4" x1="813.93" y1="274.156" x2="832.215" y2="274.156"/>
<line fill="none" stroke="#51FF00" stroke-width="4" x1="813.93" y1="310.728" x2="832.215" y2="310.728"/>
<line fill="none" stroke="#51FF00" stroke-width="4" x1="813.93" y1="319.87" x2="832.215" y2="319.87"/>
<line fill="none" stroke="#51FF00" stroke-width="4" x1="813.93" y1="329.014" x2="832.215" y2="329.014"/>
<line fill="none" stroke="#51FF00" stroke-width="4" x1="813.93" y1="338.156" x2="832.215" y2="338.156"/>
<line fill="none" stroke="#51FF00" stroke-width="4" x1="813.93" y1="347.299" x2="832.215" y2="347.299"/>
<line fill="none" stroke="#51FF00" stroke-width="4" x1="813.93" y1="356.441" x2="832.215" y2="356.441"/>
<line fill="none" stroke="#51FF00" stroke-width="4" x1="813.93" y1="365.585" x2="832.215" y2="365.585"/>
<line fill="none" stroke="#51FF00" stroke-width="4" x1="841.358" y1="283.3" x2="841.358" y2="301.585"/>
<line fill="none" stroke="#51FF00" stroke-width="4" x1="850.501" y1="283.3" x2="850.501" y2="301.585"/>
<line fill="none" stroke="#51FF00" stroke-width="4" x1="859.644" y1="283.3" x2="859.644" y2="301.585"/>
<line fill="none" stroke="#51FF00" stroke-width="4" x1="868.786" y1="283.3" x2="868.786" y2="301.585"/>
<line fill="none" stroke="#51FF00" stroke-width="4" x1="877.93" y1="283.3" x2="877.93" y2="301.585"/>
<line fill="none" stroke="#51FF00" stroke-width="4" x1="887.072" y1="283.3" x2="887.072" y2="301.585"/>
<line fill="none" stroke="#51FF00" stroke-width="4" x1="896.215" y1="283.3" x2="896.215" y2="301.585"/>
<line fill="none" stroke="#51FF00" stroke-width="4" x1="804.786" y1="283.3" x2="804.786" y2="301.585"/>
<line fill="none" stroke="#51FF00" stroke-width="4" x1="795.644" y1="283.3" x2="795.644" y2="301.585"/>
<line fill="none" stroke="#51FF00" stroke-width="4" x1="786.501" y1="283.3" x2="786.501" y2="301.585"/>
<line fill="none" stroke="#51FF00" stroke-width="4" x1="777.358" y1="283.3" x2="777.358" y2="301.585"/>
<line fill="none" stroke="#51FF00" stroke-width="4" x1="768.215" y1="283.3" x2="768.215" y2="301.585"/>
<line fill="none" stroke="#51FF00" stroke-width="4" x1="759.072" y1="283.3" x2="759.072" y2="301.585"/>
<line fill="none" stroke="#51FF00" stroke-width="4" x1="749.93" y1="283.3" x2="749.93" y2="301.585"/>
<g>
	<line fill="none" stroke="#965416" stroke-width="4" x1="333.714" y1="437.249" x2="333.714" y2="409.82"/>
	<line fill="none" stroke="#965416" stroke-width="4" x1="333.714" y1="473.82" x2="333.714" y2="501.248"/>
	<line fill="none" stroke="#965416" stroke-width="4" x1="352" y1="455.534" x2="379.429" y2="455.534"/>
	<line fill="none" stroke="#965416" stroke-width="4" x1="315.428" y1="455.534" x2="287.999" y2="455.534"/>
	<polygon fill="#E66722" stroke="#E67422" stroke-width="2" points="352,446.391 352,437.248 361.143,437.248 370.286,446.391 	"/>
	<line fill="#E66722" stroke="#E67422" stroke-width="2" x1="406.856" y1="446.391" x2="352" y2="446.391"/>
	<polygon fill="#E66722" stroke="#E67422" stroke-width="2" points="352,464.677 352,473.819 361.143,473.819 370.286,464.677 	"/>
	<line fill="#E66722" stroke="#E67422" stroke-width="2" x1="406.856" y1="464.677" x2="352" y2="464.677"/>
	<polygon fill="#E66722" stroke="#E67422" stroke-width="2" points="315.428,464.678 315.428,473.82 306.285,473.82 
		297.142,464.678 	"/>
	<line fill="#E66722" stroke="#E67422" stroke-width="2" x1="260.571" y1="464.678" x2="315.428" y2="464.678"/>
	<polygon fill="#E66722" stroke="#E67422" stroke-width="2" points="315.428,446.392 315.428,437.249 306.285,437.249 
		297.142,446.392 	"/>
	<line fill="#E66722" stroke="#E67422" stroke-width="2" x1="260.571" y1="446.392" x2="315.428" y2="446.392"/>
	<polyline fill="none" stroke="#C76129" stroke-width="3" points="342.857,501.249 388.571,501.249 406.857,482.963 	"/>
	<polyline fill="none" stroke="#C76129" stroke-width="3" points="324.571,501.249 278.857,501.249 260.571,482.963 	"/>
	<polyline fill="none" stroke="#C76129" stroke-width="3" points="342.856,409.819 388.571,409.819 406.856,428.105 	"/>
	<polyline fill="none" stroke="#C76129" stroke-width="3" points="324.571,409.819 278.856,409.819 260.571,428.105 	"/>
</g>
<line fill="none" stroke="#4EA7C8" stroke-width="3" x1="761.311" y1="645.088" x2="697.311" y2="581.088"/>
<line fill="none" stroke="#4EA7C8" stroke-width="3" x1="779.644" y1="663.421" x2="843.548" y2="727.325"/>
<line fill="none" stroke="#4EA7C8" stroke-width="3" x1="779.596" y1="645.088" x2="843.597" y2="581.088"/>
<line fill="none" stroke="#4EA7C8" stroke-width="3" x1="761.311" y1="663.373" x2="697.311" y2="727.373"/>
<circle fill="none" stroke="#4EA7C8" stroke-width="3" cx="770.453" cy="654.23" r="0.668"/>
<circle fill="#FF0000" cx="395.226" cy="645.926" r="3"/>
<circle fill="#FF0000" cx="558.971" cy="657.7" r="3"/>
<radialGradient id="SVGID_1_" cx="558.9707" cy="657.7002" r="35.3424" gradientUnits="userSpaceOnUse">
	<stop  offset="0" style="stop-color:#FF0000;stop-opacity:0"/>
	<stop  offset="0.0422" style="stop-color:#FF0000;stop-opacity:0.0422"/>
	<stop  offset="1" style="stop-color:#FF0000"/>
</radialGradient>
<ellipse fill="url(#SVGID_1_)" stroke="#FF0000" stroke-width="4" cx="558.971" cy="657.7" rx="42.999" ry="25.48"/>
<g>
	<line fill="none" stroke="#00EAFF" stroke-width="4" x1="821.918" y1="585.611" x2="839.071" y2="602.766"/>
	<line fill="none" stroke="#00EAFF" stroke-width="4" x1="830.495" y1="577.032" x2="847.65" y2="594.188"/>
	<line fill="none" stroke="#00EAFF" stroke-width="4" x1="821.918" y1="585.611" x2="839.071" y2="602.766"/>
	<line fill="none" stroke="#00EAFF" stroke-width="4" x1="813.341" y1="594.188" x2="830.494" y2="611.343"/>
	<line fill="none" stroke="#00EAFF" stroke-width="4" x1="804.764" y1="602.766" x2="821.918" y2="619.92"/>
	<line fill="none" stroke="#00EAFF" stroke-width="4" x1="796.187" y1="611.343" x2="813.341" y2="628.497"/>
	<line fill="none" stroke="#00EAFF" stroke-width="4" x1="787.609" y1="619.92" x2="804.764" y2="637.075"/>
	<line fill="none" stroke="#00EAFF" stroke-width="4" x1="779.03" y1="628.497" x2="796.185" y2="645.652"/>
	<line fill="none" stroke="#00EAFF" stroke-width="4" x1="744.722" y1="662.808" x2="761.876" y2="679.963"/>
	<line fill="none" stroke="#00EAFF" stroke-width="4" x1="736.144" y1="671.385" x2="753.299" y2="688.54"/>
	<line fill="none" stroke="#00EAFF" stroke-width="4" x1="727.565" y1="679.963" x2="744.72" y2="697.117"/>
	<line fill="none" stroke="#00EAFF" stroke-width="4" x1="718.988" y1="688.54" x2="736.143" y2="705.694"/>
	<line fill="none" stroke="#00EAFF" stroke-width="4" x1="710.411" y1="697.117" x2="727.565" y2="714.271"/>
	<line fill="none" stroke="#00EAFF" stroke-width="4" x1="701.833" y1="705.694" x2="718.988" y2="722.849"/>
	<line fill="none" stroke="#00EAFF" stroke-width="4" x1="693.256" y1="714.272" x2="710.411" y2="731.428"/>
	<line fill="none" stroke="#00EAFF" stroke-width="4" x1="796.185" y1="662.81" x2="779.03" y2="679.963"/>
	<line fill="none" stroke="#00EAFF" stroke-width="4" x1="804.763" y1="671.385" x2="787.607" y2="688.54"/>
	<line fill="none" stroke="#00EAFF" stroke-width="4" x1="813.34" y1="679.963" x2="796.185" y2="697.117"/>
	<line fill="none" stroke="#00EAFF" stroke-width="4" x1="821.917" y1="688.54" x2="804.763" y2="705.694"/>
	<line fill="none" stroke="#00EAFF" stroke-width="4" x1="830.494" y1="697.118" x2="813.341" y2="714.272"/>
	<line fill="none" stroke="#00EAFF" stroke-width="4" x1="839.071" y1="705.695" x2="821.918" y2="722.851"/>
	<line fill="none" stroke="#00EAFF" stroke-width="4" x1="761.874" y1="628.497" x2="744.72" y2="645.652"/>
	<line fill="none" stroke="#00EAFF" stroke-width="4" x1="753.297" y1="619.92" x2="736.143" y2="637.075"/>
	<line fill="none" stroke="#00EAFF" stroke-width="4" x1="744.72" y1="611.343" x2="727.565" y2="628.497"/>
	<line fill="none" stroke="#00EAFF" stroke-width="4" x1="736.143" y1="602.767" x2="718.988" y2="619.92"/>
	<line fill="none" stroke="#00EAFF" stroke-width="4" x1="727.564" y1="594.188" x2="710.411" y2="611.343"/>
	<line fill="none" stroke="#00EAFF" stroke-width="4" x1="718.987" y1="585.611" x2="701.833" y2="602.766"/>
	<line fill="none" stroke="#00EAFF" stroke-width="4" x1="710.411" y1="577.034" x2="693.256" y2="594.188"/>
</g>
<circle fill="none" stroke="#B0C7AF" stroke-width="3" cx="795.441" cy="469.287" r="14.666"/>
<line fill="none" stroke="#64CC78" stroke-width="3" x1="825.93" y1="469.325" x2="841.399" y2="469.325"/>
<line fill="none" stroke="#64CC78" stroke-width="3" x1="749.888" y1="469.249" x2="765.357" y2="469.249"/>
<line fill="none" stroke="#64CC78" stroke-width="3" x1="795.434" y1="499.534" x2="795.434" y2="515.004"/>
<line fill="none" stroke="#64CC78" stroke-width="3" x1="795.51" y1="423.492" x2="795.51" y2="438.962"/>
<g>
	<circle fill="none" stroke="#B9AFC7" stroke-width="3" cx="156.488" cy="473.82" r="18.286"/>
	<circle fill="none" stroke="#7858C7" cx="156.489" cy="473.82" r="16.503"/>
	<circle fill="none" stroke="#C8B5F2" cx="156.344" cy="473.82" r="1.502"/>
</g>
</svg>
